<?xml version="1.0" encoding="utf-8"?>
<!-- Generator: Adobe Illustrator 26.0.0, SVG Export Plug-In . SVG Version: 6.00 Build 0)  -->
<svg version="1.1" id="Layer_1" xmlns="http://www.w3.org/2000/svg" xmlns:xlink="http://www.w3.org/1999/xlink" x="0px" y="0px"
	 viewBox="0 0 498 498" style="enable-background:new 0 0 498 498;" xml:space="preserve">
<style type="text/css">
	.st0{fill:#FFFFFF;}
</style>
<g transform="translate(0.000000,498.000000) scale(0.100000,-0.100000)">
	<path class="st0" d="M604,4971c-56-11-101-42-136-94c-25-38-32-61-38-119c-3-40-5-896-3-1903l3-1830l22-40c25-47,64-85,113-111
		c33-18,75-19,772-22l736-3l18-72c49-199,3-429-121-603l-46-64h-164c-177,0-195-5-195-55c0-57-35-55,930-55c785,0,888,2,908,16
		c28,20,30,69,3,84c-11,6-90,10-183,10h-163l-39,53c-55,75-105,178-127,265c-24,94-25,255-3,352l15,69l742,3c738,3,742,3,782,25
		c46,24,75,54,101,103c18,34,19,99,19,1930v1895l-22,41c-32,60-96,111-155,123C4317,4981,665,4983,604,4971z M4406,4831l39-39
		l-2-1886l-3-1886l-28-27l-27-28l-1886-3l-1886-2l-39,39l-39,39l2,1885c3,1869,3,1885,23,1907c11,12,29,26,40,31c11,4,863,8,1894,8
		l1873,1L4406,4831z M2792,828c-57-226-17-475,108-675l26-43h-436h-436l21,30c33,46,96,188,114,255c32,118,32,300-1,433l-5,22h307
		h307L2792,828z"/>
	<path class="st0" d="M983,4554c-64-19-123-87-138-157c-8-37-10-385-8-1202l3-1150l22-40c25-47,65-86,110-109c30-15,165-16,1531-14
		l1498,3l42,27c22,15,54,49,69,75l28,48l3,1164c3,1294,6,1223-64,1295c-76,78,75,71-1574,73C1244,4568,1023,4567,983,4554z
		 M3981,4444c57-38,54,26,54-1232c0-1138,0-1160-20-1184c-10-14-32-30-47-37c-21-8-407-11-1491-9l-1464,3l-34,37l-34,38v1166v1166
		l34,34l34,34h1471C3834,4460,3958,4459,3981,4444z"/>
	<path class="st0" d="M2422,4192c-16-17-17-99-17-970c0-939,0-952,20-972c11-11,27-20,35-20s24,9,35,20c20,20,20,33,20,973
		c0,911-1,955-18,970C2473,4215,2442,4214,2422,4192z"/>
	<path class="st0" d="M1229,3726c-17-13-19-30-22-198c-2-100-1-198,3-216c8-44,44-62,80-38l25,16v210c0,205,0,209-22,224
		C1265,3744,1254,3744,1229,3726z"/>
	<path class="st0" d="M2944,3031c-55-56-26-159,50-176c45-10,99,18,116,59C3155,3020,3025,3111,2944,3031z"/>
	<path class="st0" d="M3682,2762c-15-16-17-47-17-225v-207l25-16c23-15,27-15,50,0l25,16v210c0,176-2,211-16,224
		C3728,2785,3702,2784,3682,2762z"/>
	<path class="st0" d="M2301,1584c-29-28-18-57,39-114l55-54l-55-56c-57-58-67-86-39-114c27-27,53-18,113,39l57,54l50-50
		c57-58,86-69,114-44c31,28,24,52-35,114l-54,57l50,50c58,57,69,86,44,114c-29,32-57,24-115-35l-54-54l-57,54
		C2354,1602,2328,1611,2301,1584z"/>
	<path class="st0" d="M3939,1546c-45-20-92-83-100-132c-24-162,176-263,292-148c77,78,64,199-28,267C4069,1559,3982,1566,3939,1546z
		 M4049,1439c69-55-9-154-82-103c-32,22-30,76,4,103c15,12,32,21,39,21S4034,1451,4049,1439z"/>
	<path class="st0" d="M1007,1428c-19-19-15-66,7-78c12-6,112-10,254-10c222,0,235,1,252,20c15,16,17,26,9,48l-9,27l-251,3
		C1083,1440,1016,1437,1007,1428z"/>
</g>
</svg>
