<svg xmlns="http://www.w3.org/2000/svg" viewBox="0 0 700 700"><defs><style>.fef9c2c6-86a9-4e40-8b10-db0db03b9fd8{fill:#fff;}</style></defs><g id="b43ad2a3-ead6-4dce-bc36-19802bb831b8" data-name="Layer 1"><path class="fef9c2c6-86a9-4e40-8b10-db0db03b9fd8" d="M601.9,312c16-15.59,7.17-42.74-14.93-45.95l-133-19.33A27,27,0,0,1,433.65,232L374.16,111.44c-9.88-20-38.44-20-48.32,0L266.35,232a27,27,0,0,1-20.29,14.74L113,266.06C90.93,269.27,82.11,296.42,98.1,312l96.26,93.83a27,27,0,0,1,7.75,23.85L179.39,562.18c-3.78,22,19.32,38.8,39.09,28.4l119-62.55a26.93,26.93,0,0,1,25.08,0l119,62.55c19.77,10.4,42.87-6.39,39.09-28.4L497.89,429.69a27,27,0,0,1,7.75-23.85ZM402.5,428.42a45.32,45.32,0,0,1-12.65,15.84,56,56,0,0,1-19.09,9.87A81.42,81.42,0,0,1,347,457.49a77,77,0,0,1-21.45-3,56.59,56.59,0,0,1-18.61-9.16,44.92,44.92,0,0,1-13.06-15.24q-4.9-9.22-4.91-21.75h32.86a22.05,22.05,0,0,0,1.89,9.16,19.67,19.67,0,0,0,5.44,7.15,24.53,24.53,0,0,0,8.15,4.79,30.38,30.38,0,0,0,10.4,1.71,34.73,34.73,0,0,0,11.46-1.77,22.12,22.12,0,0,0,8.51-5.2,19.67,19.67,0,0,0,5-7.57,27.79,27.79,0,0,0,1.72-10,31.8,31.8,0,0,0-2-11.94,20.48,20.48,0,0,0-5.79-8.15,25.39,25.39,0,0,0-9.28-4.73,44.25,44.25,0,0,0-12.11-1.54H327.33V354.68h17.85a34.52,34.52,0,0,0,12.23-1.95,21,21,0,0,0,8.33-5.5,19.54,19.54,0,0,0,4.43-7.5,30.2,30.2,0,0,0,1.48-9.64,27.65,27.65,0,0,0-1.48-9.27,19.78,19.78,0,0,0-4.43-7.27,20.14,20.14,0,0,0-7.5-4.61,31,31,0,0,0-10.58-1.65,29.72,29.72,0,0,0-9.28,1.41,23.35,23.35,0,0,0-7.5,4,19.81,19.81,0,0,0-5.2,6.5,18.78,18.78,0,0,0-1.89,8.51H290.93a42.13,42.13,0,0,1,4.32-19.14,45.57,45.57,0,0,1,11.87-14.89,56.25,56.25,0,0,1,17.79-9.58,69,69,0,0,1,22-3.42,82.53,82.53,0,0,1,23.4,3.13,51.72,51.72,0,0,1,18.2,9.27,43.06,43.06,0,0,1,11.76,15.43,50.37,50.37,0,0,1,4.19,21.21,37,37,0,0,1-1.65,10.93A39.52,39.52,0,0,1,398,350.89a42.71,42.71,0,0,1-7.91,8.93,49.25,49.25,0,0,1-10.88,7,45.92,45.92,0,0,1,12.47,6.62,36.83,36.83,0,0,1,13.77,20.44,50,50,0,0,1,1.65,13A48.48,48.48,0,0,1,402.5,428.42Z"/></g><g id="e134aac8-e17e-4419-83fa-4da1fd1bada6" data-name="Circle"><path class="fef9c2c6-86a9-4e40-8b10-db0db03b9fd8" d="M350,30A320.1,320.1,0,0,1,474.55,644.87,320.1,320.1,0,0,1,225.45,55.13,318.12,318.12,0,0,1,350,30m0-30C156.7,0,0,156.7,0,350S156.7,700,350,700,700,543.3,700,350,543.3,0,350,0Z"/></g></svg>