<svg xmlns="http://www.w3.org/2000/svg" viewBox="0 0 700 700"><defs><style>.a6eb958b-eb21-48c0-9ff6-3afcf9bf06e9{fill:#fff;}</style></defs><g id="bc882c80-2ff1-428f-ae44-6c7b5013a17d" data-name="Layer 1"><path class="a6eb958b-eb21-48c0-9ff6-3afcf9bf06e9" d="M601.9,312c16-15.59,7.17-42.74-14.93-45.95l-133-19.33A27,27,0,0,1,433.65,232L374.16,111.44c-9.88-20-38.44-20-48.32,0L266.35,232a27,27,0,0,1-20.29,14.74L113,266.06C90.93,269.27,82.11,296.42,98.1,312l96.26,93.83a27,27,0,0,1,7.75,23.85L179.39,562.18c-3.78,22,19.32,38.8,39.09,28.4l119-62.55a26.93,26.93,0,0,1,25.08,0l119,62.55c19.77,10.4,42.87-6.39,39.09-28.4L497.89,429.69a27,27,0,0,1,7.75-23.85ZM365.45,451.94H332.24v-132l-43.49,15.6v-28.6l74.92-27.06h1.78Z"/></g><g id="a66a0af8-db34-440f-ab73-e5c4bb75a501" data-name="Circle"><path class="a6eb958b-eb21-48c0-9ff6-3afcf9bf06e9" d="M350,30A320.1,320.1,0,0,1,474.55,644.87,320.1,320.1,0,0,1,225.45,55.13,318.12,318.12,0,0,1,350,30m0-30C156.7,0,0,156.7,0,350S156.7,700,350,700,700,543.3,700,350,543.3,0,350,0Z"/></g></svg>