<svg xmlns="http://www.w3.org/2000/svg" viewBox="0 0 700 700"><defs><style>.b03d41f9-6e44-4881-89bb-edfee4031f43{fill:#fff;}</style></defs><g id="b9c1d554-3e99-4d4c-90a4-d15a7a1608e5" data-name="Layer 1"><path class="b03d41f9-6e44-4881-89bb-edfee4031f43" d="M601.9,312c16-15.59,7.17-42.74-14.93-45.95l-133-19.33A27,27,0,0,1,433.65,232L374.16,111.44c-9.88-20-38.44-20-48.32,0L266.35,232a27,27,0,0,1-20.29,14.74L113,266.06C90.93,269.27,82.11,296.42,98.1,312l96.26,93.83a27,27,0,0,1,7.75,23.85L179.39,562.18c-3.78,22,19.32,38.8,39.09,28.4l119-62.55a26.93,26.93,0,0,1,25.08,0l119,62.55c19.77,10.4,42.87-6.39,39.09-28.4L497.89,429.69a27,27,0,0,1,7.75-23.85ZM408.17,451.92H290.82V429.47l55.66-59.8q6.5-7.1,11-12.89a100.05,100.05,0,0,0,7.33-10.63,42.74,42.74,0,0,0,4-8.87,28.07,28.07,0,0,0,1.24-8A29.67,29.67,0,0,0,368.34,319a22.66,22.66,0,0,0-4.61-7.69,21.15,21.15,0,0,0-7.27-4.72,25.11,25.11,0,0,0-9.27-1.66,33.86,33.86,0,0,0-11.64,1.83,21.23,21.23,0,0,0-8.34,5.38,24.16,24.16,0,0,0-5.2,9.1,40.06,40.06,0,0,0-1.77,12.41h-33a54.69,54.69,0,0,1,4.37-21.69A53.84,53.84,0,0,1,304.05,294a57.16,57.16,0,0,1,19.21-12.11,73.84,73.84,0,0,1,48.21-.77,47.15,47.15,0,0,1,17,10.28,43.88,43.88,0,0,1,10.28,15.9,56.85,56.85,0,0,1,3.55,20.5,49.75,49.75,0,0,1-2.66,16.25,71.18,71.18,0,0,1-7.5,15.3,142.33,142.33,0,0,1-11.82,15.43q-6.86,7.86-15.25,16.48l-32.38,34.28h75.52Z"/></g><g id="a810e5c8-4589-4932-a32d-54d92316f8dc" data-name="Circle"><path class="b03d41f9-6e44-4881-89bb-edfee4031f43" d="M350,30A320.1,320.1,0,0,1,474.55,644.87,320.1,320.1,0,0,1,225.45,55.13,318.12,318.12,0,0,1,350,30m0-30C156.7,0,0,156.7,0,350S156.7,700,350,700,700,543.3,700,350,543.3,0,350,0Z"/></g></svg>