<?xml version="1.0" encoding="utf-8"?>
<!-- Generator: Adobe Illustrator 26.0.0, SVG Export Plug-In . SVG Version: 6.00 Build 0)  -->
<svg version="1.1" id="Layer_1" xmlns="http://www.w3.org/2000/svg" xmlns:xlink="http://www.w3.org/1999/xlink" x="0px" y="0px"
	 viewBox="0 0 500 500" style="enable-background:new 0 0 500 500;" xml:space="preserve">
<style type="text/css">
	.st0{fill-rule:evenodd;clip-rule:evenodd;fill:#FFFFFF;}
</style>
<g>
	<path class="st0" d="M276.5,178.9c5.4,0,10.6-2.1,14.4-5.9c3.8-3.8,6-9,6-14.4V90.9c0-16.2-6.4-31.7-17.9-43.1S252,30,235.8,30H61
		c-16.2,0-31.7,6.4-43.1,17.8C6.4,59.3,0,74.8,0,90.9v318.2c0,16.2,6.4,31.7,17.9,43.1C29.3,463.6,44.8,470,61,470h174.8
		c16.2,0,31.7-6.4,43.1-17.8s17.9-26.9,17.9-43.1v-60.9c0-7.3-3.9-14-10.2-17.6c-6.3-3.6-14-3.6-20.3,0s-10.2,10.3-10.2,17.6v60.9
		c0,5.4-2.1,10.5-6,14.4c-3.8,3.8-9,5.9-14.4,5.9H61c-5.4,0-10.6-2.1-14.4-5.9c-3.8-3.8-6-9-6-14.4V90.9c0-5.4,2.1-10.5,6-14.4
		c3.8-3.8,9-5.9,14.4-5.9h174.8c5.4,0,10.6,2.1,14.4,5.9c3.8,3.8,6,9,6,14.4v67.7c0,5.4,2.1,10.6,6,14.4
		C265.9,176.8,271,178.9,276.5,178.9L276.5,178.9z"/>
	<path class="st0" d="M130.8,253.4c0,5.4,2.1,10.5,6,14.4c3.8,3.8,9,5.9,14.4,5.9h279.2L355,348.2l0,0c-4.9,5.1-6.7,12.5-4.8,19.3
		c1.9,6.8,7.2,12.2,14,14.2s14.2,0.2,19.4-4.6L494,267.9c3.9-3.8,6-9,6-14.5s-2.2-10.6-6-14.5l-110.5-109
		c-5.2-4.8-12.6-6.5-19.4-4.6c-6.8,2-12.1,7.3-14,14.2c-1.9,6.8,0,14.2,4.8,19.3l75.3,74.5H151.1c-5.4,0-10.5,2.1-14.3,5.9
		C133,242.9,130.9,248,130.8,253.4L130.8,253.4z"/>
</g>
</svg>
