<?xml version="1.0" encoding="utf-8"?>
<!-- Generator: Adobe Illustrator 26.0.0, SVG Export Plug-In . SVG Version: 6.00 Build 0)  -->
<svg version="1.1" id="Layer_1" xmlns="http://www.w3.org/2000/svg" xmlns:xlink="http://www.w3.org/1999/xlink" x="0px" y="0px"
	 viewBox="0 0 500 500" style="enable-background:new 0 0 500 500;" xml:space="preserve">
<style type="text/css">
	.st0{fill-rule:evenodd;clip-rule:evenodd;fill:#FFFFFF;}
</style>
<path class="st0" d="M250.1,292c12-11.5,23.7-22.6,35.3-33.7c47.9-46,95.8-92,143.8-138c12-11.4,26.3-14.8,41.9-9.8
	c15.4,4.9,25,15.9,28.1,31.8c3.1,15.6-2.3,28.7-13.6,39.6c-44.6,42.7-89.1,85.5-133.6,128.2c-23.4,22.5-46.8,45.1-70.3,67.4
	c-20.1,19.1-43.3,19-63.3-0.2C150.2,311.9,82,246.5,13.9,181.1C0,167.7-3.7,149.4,3.8,132.8c7.4-16.3,23.8-25.8,42.3-24.2
	c10.6,0.9,19.1,6,26.7,13.3c56.7,54.4,113.4,108.8,170.1,163.2C245,287.2,247.2,289.2,250.1,292z"/>
</svg>
