<svg id="b75fc94e-caba-43dc-a533-50c2f864eebb" data-name="Layer 1" xmlns="http://www.w3.org/2000/svg" viewBox="0 0 700 700"><defs><style>.bbcb125d-dfed-41fb-8225-96b611567aeb{fill:#fff;}</style></defs><path class="bbcb125d-dfed-41fb-8225-96b611567aeb" d="M255.7,465H.06c0-33.25-.28-65.68.36-98.09.08-4,4.45-8.52,7.78-11.86q121-121.14,242.38-241.95c3.7-3.68,8.76-8.4,13.27-8.48,38.59-.67,77.2-.39,117.36-.39L127.56,356.49l2.47,4.34H386.91V595.72H360c-30,0-59.9-.2-89.85.08-9.05.09-14.75-1.45-14.64-12.51C255.93,544.17,255.7,505,255.7,465Z"/><path class="bbcb125d-dfed-41fb-8225-96b611567aeb" d="M563.06,109.79,444.88,229.87V105H699.94c0,41.44.29,82.27-.41,123.07-.07,4.41-5.3,9.25-9,13-37.46,37.75-75.33,75.09-112.41,113.2a34.21,34.21,0,0,0-8.9,21.09c-.88,36.95-.41,73.94-.41,111.13H444.72c0-36.54.9-72.41-.4-108.2-.59-16,3.66-27,15.49-38.22,34.19-32.37,67-66.21,100.07-99.71,3.61-3.64,7.93-8.82,8-13.35.64-38,.37-76.06.37-114.1Z"/><path class="bbcb125d-dfed-41fb-8225-96b611567aeb" d="M578.18,487.38c42.19-41.68,82.08-81.07,121.37-119.87V487.38Z"/></svg>