<?xml version="1.0" encoding="utf-8"?>
<!-- Generator: Adobe Illustrator 26.0.0, SVG Export Plug-In . SVG Version: 6.00 Build 0)  -->
<svg version="1.1" id="Layer_1" xmlns="http://www.w3.org/2000/svg" xmlns:xlink="http://www.w3.org/1999/xlink" x="0px" y="0px"
	 viewBox="0 0 700 700" style="enable-background:new 0 0 700 700;" xml:space="preserve">
<style type="text/css">
	.st0{fill:#FFFFFF;}
</style>
<g>
	<path class="st0" d="M348.2,246.4c19.5,0,35.3-15.8,35.3-35.3c0-19.5-15.8-35.4-35.3-35.4c-19.5,0-35.4,15.8-35.4,35.4
		C312.8,230.6,328.6,246.4,348.2,246.4z"/>
	<path class="st0" d="M386.8,498.7H370v-196c0-11-9-20-20-20h-35.4c-11,0-20,9-20,20s9,20,20,20H330v176h-16.8c-11,0-20,9-20,20
		s9,20,20,20h73.6c11,0,20-9,20-20S397.8,498.7,386.8,498.7z"/>
	<path class="st0" d="M350,0C156.7,0,0,156.7,0,350s156.7,350,350,350s350-156.7,350-350S543.3,0,350,0z M569.2,569.2
		c-28.5,28.5-61.6,50.8-98.5,66.5C432.5,651.8,391.9,660,350,660s-82.5-8.2-120.7-24.3c-36.9-15.6-70.1-38-98.5-66.5
		c-28.5-28.5-50.8-61.6-66.5-98.5C48.2,432.5,40,391.9,40,350s8.2-82.5,24.3-120.7c15.6-36.9,38-70.1,66.5-98.5
		c28.5-28.5,61.6-50.8,98.5-66.5C267.5,48.2,308.1,40,350,40s82.5,8.2,120.7,24.3c36.9,15.6,70.1,38,98.5,66.5
		c28.5,28.5,50.8,61.6,66.5,98.5C651.8,267.5,660,308.1,660,350s-8.2,82.5-24.3,120.7C620,507.6,597.7,540.7,569.2,569.2z"/>
</g>
</svg>
