<?xml version="1.0" encoding="utf-8"?>
<!-- Generator: Adobe Illustrator 26.0.0, SVG Export Plug-In . SVG Version: 6.00 Build 0)  -->
<svg version="1.1" id="Layer_1" xmlns="http://www.w3.org/2000/svg" xmlns:xlink="http://www.w3.org/1999/xlink" x="0px" y="0px"
	 viewBox="0 0 700 700" style="enable-background:new 0 0 700 700;" xml:space="preserve">
<style type="text/css">
	.st0{fill:#000000;}
</style>
<path class="st0" d="M695.3,512.3c-8.4-9.4-25.5-8.9-49.1,1.7c-7.1,3.2-12.7,5.9-16.7,8.4v0c-5.6,3.3-11.6,6.1-17.8,8.2
	c-1.1-1.1-2.4-1.9-3.8-2.4c-26.7-7-49.9-23-77.3-53.5c-11.6-13.8-22.3-28.4-32.1-43.5c-12-19.1-25.8-37-41.4-53.5
	c5.4-2.2,9.9-6.3,12.7-11.5c8.4-8.4,11.8-20.7,8.9-32.2c-2.4-7.8-6.9-14.7-13.1-20c-6.1-5.3-13.6-8.8-21.7-10
	c-30-8.1-84.3-27.4-97.9-32.3c-6-12-27.7-54.1-50-71.7c-3-2.3-6.1-4.4-9.4-6.2l5-76.4h0c0.2-3.6-1.9-6.9-5.2-8.3
	c-2.5-1-5.3-0.8-7.5,0.6c-0.3-7.9-1.8-15.8-4.3-23.3c-12.7-33.9-47.2-51.6-89.1-46.1v0c-17,1.5-33.2,8.1-46.5,18.8
	c-13.3,10.8-23.1,25.2-28.1,41.5c-8.1,27.4,0,76.4,0,78.9v0c0.3,1.2,0.7,2.3,1.4,3.3c-2.5-0.1-4.9-0.1-7.4,0
	c-38.2,4.2-79.8,11.3-77.8,43.9h0c-1.1,13.4-3.6,26.6-7.6,39.5C7.4,308.1,1.6,351.5,2.4,395c-4.9,52.9-2.1,106.1,8.1,158.2
	c0,56.4,38.2,105.1,81.2,106.8c12.7,0,27.5,0.6,42.6,0.6h50h27.9c23.2,0,58-32.7,106.4-86.3l1.5,1c6.1,3.4,7.4,6.4,10.6,13.5l0,0
	c3.8,9.1,8.9,17.7,14.9,25.5c4.5,10.3,18.1,32.8,36.9,32.8h3.4c15.3-2.2,38.2-5.5,41.9-39.6h0c1-14.9,6.5-29.2,15.7-41l5.9-8.9
	l5.1-7.9c2.3-3.4,4.5-6.9,6.6-10.4c7.4,3.8,14.9,7.1,21.9,10.3c18.3,8.1,35.6,15.9,41.2,26.5c5.7,10.5,10.7,21.5,14.9,32.7
	c2.6,16.3,10.2,31.5,21.8,43.3c4.5,4.8,10.8,7.5,17.4,7.5c19.9-1,40.4-22.8,64.5-48.2l1.1-1.1h0c18.6-17.4,34.6-37.4,47.4-59.4
	C701.3,533.5,702.7,520.5,695.3,512.3L695.3,512.3z M106.9,200.2c4.5,0,8.8-0.6,12.7-0.6h0c13.8,0.4,27.6,2.1,41.1,5.2
	c17.6,4.1,35.6,5.8,53.6,5c10.9-0.8,19.9-2.2,27.7-3.4c20.1-3.2,29.3-4.7,44,6.9c17.9,14.1,37,49.8,44,63.6h0
	c-10.2,6.8-21.4,11.9-33.2,15c-38.2,11.7-38.2,30.3-38.2,34c0.3,2.5,1.6,4.7,3.7,6.1c3,2,5.7,4.3,8.2,6.9c-3.3,8.6-8,16.5-14.1,23.3
	c-12.6,14.1-20,32.1-21.1,50.9c-4.4,38.3-11.6,76.3-21.6,113.6c-2.9,5.7-25.5,10.6-118.1,1.1l-22.8-2.2v0
	c-17.1-2.1-34.4,1.6-49.1,10.4c-7.1-46.1-8.7-92.8-4.7-139.3c0.1-0.5,0.1-1,0-1.5c-0.8-41.9,4.9-83.8,16.8-124
	c4.6-14.5,7.3-29.4,8.1-44.6C43.2,213.1,62.1,205.2,106.9,200.2L106.9,200.2z M127.2,105.9c4-13.3,12-25,22.8-33.7
	c10.8-8.7,24.1-13.8,37.9-14.8c34-4.5,61.2,9,71.3,35.3c3.3,11.7,4.4,24,3.3,36.1l-10.1,11.5l0,0c-1.1,1.3-1.7,2.8-1.9,4.4
	l-3.3,25.5c-0.4,2.6,0.5,5.3,2.4,7.1l5,4.8c-0.6,2.4-1.3,4.3-1.7,6c-4.3,0-8.8,1.1-13.5,1.9l-15.1,2.2v0c-2-0.6-3.8-1.5-5.5-2.7
	l-4.5-3.7c-5-6-12.4-9.5-20.2-9.5c-4.3,0.1-8.5,0.4-12.7,1c-18.2,2.7-36.7,1.2-54.2-4.5C123.6,150.7,123.6,128.1,127.2,105.9
	L127.2,105.9z M264.3,168l2.9-18.7l6.7-7.8l-2.2,33.4L264.3,168z M458.2,355c-0.7,0.7-1.4,1.6-1.8,2.5c-3.9,8.1-16.5,6.6-35.4,3.3
	h-3.9c-19.5-3.2-72.4-12.7-100.6-19.7c-13.2-3.2-25.7-8.9-36.8-16.8l-2.3-2.2h0c6.9-7.1,15.8-11.9,25.5-13.9
	c14.8-3.7,28.6-10.4,40.7-19.6c16.2,5.9,67.5,24.1,97.4,32.1c12.7,3.6,21,9.9,22.9,17.9h0C465,344.8,462.8,351,458.2,355L458.2,355z
	 M398,471.4c2.7,6.7,5.8,13.3,9.3,19.6l-4.5,5.3h0c-4.9,7.1-12.5,11.9-21,13.2c-3.9-1.6-7.9-2.8-12-3.6
	c9.2-14.9,17.8-29.8,25.5-42.6L398,471.4z M253.8,404.8c3.9,6.4,7.6,12.7,11.3,18.2c-6.2,7.4-12,14.6-17.2,21.6
	c1.5-9.8,2.9-19.7,4.2-29.7C252.6,411.2,253.1,407.7,253.8,404.8L253.8,404.8z M312.2,356.8l18.6,4.1h0
	c-19.5,14.6-37.7,31-54.2,48.9c-4.7-7.8-10.1-16.2-15.7-25.5v0c2.5-4.2,5.4-8.2,8.7-12c6.6-7.6,11.9-16.2,15.8-25.5
	C293.8,351.3,302.8,354.6,312.2,356.8L312.2,356.8z M359.5,521l6.4,1.5c2.8,0.5,5.5,1.2,8.2,2c10.3,12.1,14.9,28,12.7,43.7
	c-1.2,10.5-6.6,20-14.9,26.5c-4.3,3.5-9.4,5.7-14.9,6.5c-4.5-6.1-8.3-12.6-11.2-19.6c-3-8.4-8.7-15.5-16.2-20.2
	c10.9-12.7,20.9-26.1,29.9-40.2L359.5,521z M445.5,509.5c-14.7-11.2-25.9-26.5-32-43.9c-2.3-5.7-4.9-11.3-7.8-16.7
	c13.1-20.4,24.4-41.9,33.9-64.3c17.6,16.6,32.8,35.5,45.2,56.3c10.2,15.8,21.4,30.9,33.5,45.3c20.6,25.7,47.8,45.3,78.7,56.6
	c-0.8,12.7-5.3,24.8-12.9,35c-7.6,10.1-18.1,17.8-30.1,22c-4.2-11-9.1-21.7-14.6-32.1c-8.4-15.7-28.3-24.6-49.3-33.9l0,0
	C474.2,527.7,459.3,519.5,445.5,509.5L445.5,509.5z"/>
</svg>
