<?xml version="1.0" encoding="utf-8"?>
<!-- Generator: Adobe Illustrator 26.0.0, SVG Export Plug-In . SVG Version: 6.00 Build 0)  -->
<svg version="1.1" id="Layer_1" xmlns="http://www.w3.org/2000/svg" xmlns:xlink="http://www.w3.org/1999/xlink" x="0px" y="0px"
	 viewBox="0 0 500 500" style="enable-background:new 0 0 500 500;" xml:space="preserve">
<style type="text/css">
	.st0{fill:#FFFFFF;}
</style>
<g transform="translate(0.000000,498.000000) scale(0.100000,-0.100000)">
	<path class="st0" d="M2255,4946c-573-101-1034-495-1214-1037c-68-204-69-212-75-688l-6-434l-160-34c-88-18-166-35-172-38
		c-10-3-13-255-13-1213V292l28-11c43-17,304-86,457-119c278-62,529-103,845-139c222-25,898-25,1115,0c467,54,926,146,1255,249l75,24
		l3,1206l2,1207l-37,11c-21,5-100,22-175,37l-138,27v301c-1,473-15,611-86,824c-173,520-605,904-1154,1026
		C2704,4958,2360,4964,2255,4946z M2731,4805c192-33,386-111,554-223c110-74,298-262,372-372c112-168,190-362,223-554
		c12-69,15-174,15-468v-380l-23,6c-25,6-221,36-237,36c-6,0-10,95-10,268c0,424-19,567-98,750c-135,313-425,560-756,643
		c-127,33-360,37-493,10c-428-88-757-406-869-841c-14-53-18-135-23-445l-6-380l-105-17c-58-9-120-20-137-23l-33-6v379
		c0,295,3,399,15,468c77,449,368,832,785,1034c100,48,243,94,355,114C2369,4823,2620,4824,2731,4805z M2671,4389
		c83-14,177-46,259-87c251-125,427-335,512-609c27-88,27-89,31-456l3-368l-23,5c-25,6-161,20-358,37c-191,17-568,25-835,17
		c-214-6-652-40-713-55l-23-6l3,369c4,368,4,369,31,457c110,356,394,619,747,692C2385,4401,2590,4404,2671,4389z M3085,2771
		c332-30,612-68,935-127c105-19,198-37,208-40c16-5,17-67,17-1109V392l-77-21c-349-93-728-164-1103-207c-194-21-736-30-940-15
		c-420,32-826,101-1252,213l-118,31v1102v1103l48,11c257,58,747,130,1112,162C2221,2798,2786,2798,3085,2771z"/>
	<path class="st0" d="M2436,1840c-67-14-131-50-181-100c-65-64-92-128-98-225c-5-101,21-177,83-244l42-46l6-150c5-164,12-193,60-244
		c42-44,84-61,151-61c68,0,102,12,145,53c60,57,71,94,71,250v139l41,46c69,77,94,142,94,242c0,76-3,92-33,152c-20,41-50,82-78,107
		C2661,1827,2536,1861,2436,1840z M2567,1700c82-23,137-102,138-198c0-70-22-114-81-164l-49-41v-151c0-204-10-236-75-236
		c-59,0-60,3-65,200l-5,181l-52,47c-63,57-83,96-83,161c0,63,13,97,53,140C2408,1702,2484,1723,2567,1700z"/>
</g>
</svg>
