<?xml version="1.0" standalone="no"?>
<!DOCTYPE svg PUBLIC "-//W3C//DTD SVG 20010904//EN"
 "http://www.w3.org/TR/2001/REC-SVG-20010904/DTD/svg10.dtd">
<svg version="1.0" xmlns="http://www.w3.org/2000/svg"
 width="449.000000pt" height="448.000000pt" viewBox="0 0 449.000000 448.000000"
 preserveAspectRatio="xMidYMid meet">

<g transform="translate(0.000000,448.000000) scale(0.100000,-0.100000)"
fill="#fff" stroke="none">
<path d="M2015 4468 c-414 -41 -858 -225 -1183 -490 -448 -365 -740 -898 -812
-1478 -13 -109 -13 -411 0 -520 52 -418 218 -814 478 -1140 466 -584 1216
-902 1958 -829 593 57 1154 357 1523 812 331 408 501 890 501 1417 0 361 -70
669 -225 985 -413 842 -1306 1337 -2240 1243z m425 -278 c898 -93 1615 -780
1745 -1671 20 -140 20 -418 0 -558 -141 -965 -970 -1682 -1945 -1681 -967 2
-1795 721 -1935 1681 -20 140 -20 418 0 558 151 1036 1100 1778 2135 1671z"/>
<path d="M2081 3209 c-31 -12 -881 -853 -903 -893 -20 -36 -23 -99 -7 -144 7
-19 167 -184 454 -465 468 -461 468 -461 540 -443 38 10 93 64 104 103 21 74
18 78 -302 400 -213 214 -298 306 -294 317 6 14 86 16 793 16 713 0 789 2 821
17 46 22 73 67 73 123 0 56 -27 101 -73 123 -32 15 -108 17 -821 17 -707 0
-787 2 -793 16 -4 11 81 103 294 317 234 235 302 309 306 334 20 107 -92 202
-192 162z"/>
</g>
</svg>
