<?xml version="1.0" encoding="utf-8"?>
<!-- Generator: Adobe Illustrator 26.0.0, SVG Export Plug-In . SVG Version: 6.00 Build 0)  -->
<svg version="1.1" id="Layer_1" xmlns="http://www.w3.org/2000/svg" xmlns:xlink="http://www.w3.org/1999/xlink" x="0px" y="0px"
	 viewBox="0 0 547 547" style="enable-background:new 0 0 547 547;" xml:space="preserve">
<style type="text/css">
	.st0{fill:#FFFFFF;}
</style>
<g transform="translate(0.000000,444.000000) scale(0.100000,-0.100000)">
	<path class="st0" d="M1603,3900c-103-19-195-51-303-106c-279-143-478-392-562-702c-19-71-22-108-23-267c0-162,3-195,23-268
		c31-115,89-245,148-333c56-85,175-214,246-265c26-20,48-39,48-42c0-4-35-15-78-26c-100-24-204-65-321-127c-379-199-660-573-746-994
		c-9-44-20-138-25-210C-2,389-2-369,10-420c5-22,21-50,35-62l26-23h1730h1731l29,30l30,30l-4,572c-3,541-5,578-25,659
		c-111,459-387,808-794,1007c-90,44-244,98-309,108c-21,4-39,10-39,15c0,4,15,18,33,30c51,36,165,149,213,210
		c90,117,157,254,196,404c27,102,36,323,18,433c-74,460-433,828-889,907C1890,3918,1701,3918,1603,3900z M2038,3676
		c258-75,484-278,581-523c50-127,64-213,59-367c-4-120-9-147-37-231c-105-309-339-522-656-596c-102-24-278-22-387,5
		c-301,72-544,296-640,591c-26,80-31,116-36,224c-5,144,6,230,45,341c100,281,353,504,648,569C1716,3712,1939,3705,2038,3676z
		 M2344,1710c257-45,478-159,667-345c147-145,252-314,313-509c52-163,56-217,56-702v-449H1794H208l5,458c5,403,8,468,25,552
		c54,257,162,459,342,641c184,185,416,309,665,353C1365,1730,2223,1731,2344,1710z"/>
	<path class="st0" d="M4433,3331l-28-24l-5-404l-5-403l-402-5c-402-5-402-5-425-28c-18-17-23-34-23-71c0-58,21-86,74-101
		c21-6,191-10,409-10h372v-396v-396l29-29c41-41,98-41,143,0l33,29l3,396l3,396h367c221,0,382,4,404,10c79,22,105,114,49,171l-29,29
		h-396h-395l-3,401l-3,401l-33,29C4530,3364,4474,3366,4433,3331z"/>
</g>
</svg>
