<?xml version="1.0" encoding="utf-8"?>
<!-- Generator: Adobe Illustrator 26.0.0, SVG Export Plug-In . SVG Version: 6.00 Build 0)  -->
<svg version="1.1" id="Layer_1" xmlns="http://www.w3.org/2000/svg" xmlns:xlink="http://www.w3.org/1999/xlink" x="0px" y="0px"
	 viewBox="0 0 700 700" style="enable-background:new 0 0 700 700;" xml:space="preserve">
<style type="text/css">
	.st0{fill:#FFFFFF;}
</style>
<g>
	<path class="st0" d="M538.5,169.6l1.2,1l3.3,2.7c1.5,1.2,3.1,2.4,4.7,3.5l2,1.4l6.3,3.8l1.2,0.7c2.4,1.3,4.9,2.4,7.4,3.5v0
		c0.3,0.1,0.6,0.1,0.9,0c2.5,1.1,5,2,7.7,2.8h1.3l7.3,1.9h2.1l6.6,1.1h3.1h6h16.4l5.7-0.9l3.1-0.8l6.2-1.5l2.4-0.9
		c2.2-0.7,4.3-1.4,6.5-2.3l2.1-1c2.1-0.9,4.2-1.9,6.2-3l2.2-1.2l5.5-3.3l2.6-1.9l4.3-3.2l3.4-2.7l1.2-1.1v0
		c-14.5-21.1-38.5-33.7-64.1-33.8h-0.7C576.7,135,552.7,148.1,538.5,169.6L538.5,169.6z"/>
	<path class="st0" d="M602.8,114c12-0.1,22.9-6.6,28.9-17c5.9-10.4,5.8-23.1-0.2-33.5c-6-10.3-17.1-16.7-29-16.7
		c-12,0-23,6.4-29,16.7c-6,10.3-6.1,23.1-0.2,33.5c5.9,10.4,16.9,16.9,28.9,17H602.8z"/>
	<path class="st0" d="M526.9,188.6c-0.3-0.3-0.6-0.6-0.9-0.9l-2.3-1.6c-2.3-2.1-4.5-4.3-6.7-6.5c-1.8-1.8-3.5-3.6-5-5.5l-63.9,63.7
		v0c5.5,4.8,10.7,10,15.5,15.5L526.9,188.6z"/>
	<path class="st0" d="M350,374.9c12.3,0,24.1-4.9,32.7-13.5c8.7-8.7,13.6-20.4,13.6-32.7c0-12.3-4.8-24.1-13.5-32.8
		c-8.6-8.7-20.4-13.6-32.7-13.7c-12.3-0.1-24.1,4.8-32.8,13.4c-8.7,8.6-13.7,20.4-13.8,32.7c-0.1,12.4,4.8,24.2,13.5,33
		C325.8,370,337.6,374.9,350,374.9L350,374.9z"/>
	<path class="st0" d="M350,396.8c-34.9,0-67.5,17.6-86.6,46.9l3.3,3l3.6,3.2c2.1,1.6,4.3,3.2,6.5,4.7l3.2,2.2
		c2.4,1.6,4.9,3.2,7.5,4.7l2.7,1.5l8.4,4l2.6,1.2l8.6,3.2l3.1,1c2.7,0.9,5.6,1.5,8.3,2.2l3.9,0.9c2.5,0,5,0.9,7.7,1.2
		c2.6,0.3,3.2,0,4.8,0.7h24.9l4.4-0.5c2.7,0,5.6-0.8,8.2-1.3l3.3-0.8c3.1-0.7,6.1-1.4,9.1-2.3l2.3-0.8c3.2-1.1,6.3-2.2,9.5-3.5
		l1.8-0.9c3.2-1.3,6.2-2.8,9.3-4.5l1.9-1l8.4-5.1l2.3-1.6c2.5-1.8,4.9-3.5,7.3-5.5l2.8-2.4l3.7-3.4l0,0
		C417.7,414.3,385,396.7,350,396.8L350,396.8z"/>
	<path class="st0" d="M602.8,641.7c-25.7,0-49.7,12.6-64.3,33.7l1.5,1.3v0c1,0.9,2,1.7,3.1,2.5l3.9,3.1l3.7,2.4l3.7,2.3l4.4,2.4
		l3.3,1.5l5.3,2.3l2.7,1l5.9,2l2.5,0.7l6.3,1.4h2.5l6.5,0.9h2.2h6.8l0,0c1.9,0.1,3.9,0.1,5.8,0h3.8c1.5,0,3.1,0,4.6-0.7l4.9-0.8
		l3.5-0.8h0c2-0.4,3.9-0.9,5.8-1.5l2.6-0.9c2.1-0.7,4.3-1.4,6.3-2.3l2-0.9l6.5-3.1l1.9-1l6-3.7l1.9-1.2l5.4-4l2.1-1.8l1.9-1.6v0
		C652.8,653.9,628.6,641.5,602.8,641.7L602.8,641.7z"/>
	<path class="st0" d="M565.6,121.3C554.5,111.2,547.9,97,547.4,82c-0.5-15,5.1-29.7,15.6-40.5c10.5-10.8,24.9-16.9,39.9-16.9
		c15.1,0,29.5,6.1,39.9,16.9c10.5,10.8,16.1,25.4,15.6,40.5c-0.5,15.1-7.1,29.2-18.3,39.3c16.6,6.7,31.1,17.7,42,31.9
		c13.8-19.5,19.9-43.3,17.3-67.1c-2.7-23.7-14-45.6-31.8-61.5C649.8,8.8,626.7,0,602.9,0C579,0,556,8.8,538.2,24.7
		s-29.1,37.8-31.8,61.5c-2.7,23.7,3.5,47.6,17.3,67.1C534.6,139.1,549,128,565.6,121.3L565.6,121.3z"/>
	<path class="st0" d="M636.5,586.2c0,18.6-15.1,33.7-33.7,33.7c-18.6,0-33.7-15.1-33.7-33.7c0-18.6,15.1-33.7,33.7-33.7
		C621.4,552.5,636.5,567.6,636.5,586.2"/>
	<path class="st0" d="M602.9,506c-25.7,0-50.4,10.2-68.6,28.4c-18.2,18.2-28.5,42.9-28.5,68.6c0,20,6.3,39.6,17.9,55.9
		c10.9-14.2,25.4-25.1,42-31.7c-11.2-10-17.8-24.2-18.3-39.2c-0.5-15,5.1-29.6,15.5-40.4c10.4-10.8,24.8-16.9,39.8-16.9
		c15,0,29.4,6,39.9,16.8c10.5,10.8,16.1,25.4,15.6,40.4c-0.5,15-7.1,29.2-18.3,39.2c16.6,6.6,31.1,17.6,42.1,31.7
		c13.8-19.4,20-43.3,17.4-67c-2.7-23.7-14-45.6-31.8-61.5c-17.8-15.9-40.9-24.6-64.7-24.6L602.9,506z"/>
	<path class="st0" d="M59.9,121.3C48.7,111.2,42.1,97,41.6,82C41,66.9,46.7,52.3,57.1,41.5c10.5-10.8,24.9-17,40-17s29.5,6.1,40,17
		c10.5,10.8,16.1,25.5,15.6,40.5c-0.5,15.1-7.1,29.3-18.3,39.3c16.6,6.7,31.2,17.7,42.1,31.9c17.8-25.3,22.5-57.5,12.7-86.8
		c-9.9-29.3-33.1-52.1-62.5-61.5C97-4.4,64.9,0.8,39.9,19S0.2,66.3,0.1,97.2c0,20.1,6.2,39.7,17.9,56.1
		C28.9,139.1,43.3,128,59.9,121.3L59.9,121.3z"/>
	<path class="st0" d="M243.2,454.7l-1.6-1.5h0c-0.3-0.3-0.5-0.7-0.7-1.1c-1.4-1.4-2.7-2.8-4-4.4l-63.7,63.9
		c5.6,4.7,10.7,9.9,15.4,15.4l63.7-63.6c-1.5-1.3-2.8-2.7-4.3-4L243.2,454.7z"/>
	<path class="st0" d="M32.9,169.6l1.6,1.5l2.4,2c1.8,1.3,3.4,2.6,5.3,3.8l1.9,1.3c2,1.3,4,2.5,6.1,3.7l1.6,0.9
		c2.2,1.2,4.5,2.2,6.8,3.3l1.6,0.7c2.2,1,4.6,1.8,6.9,2.5l2,0.7l6.7,1.8l2.6,0.7l6.2,0.9h3.3h6h12.6l3.9-0.5l5.5-0.8l3.3-0.8l6-1.5
		l2.6-0.9c2-0.7,4.1-1.4,6.2-2.3l2.3-1c2-0.9,4-1.9,6-3l2.4-1.3c1.8-1,3.5-2,5.1-3.1l3-2.1l3.9-2.8l3.8-3.2l1-0.9v0
		c-14.7-20.9-38.6-33.3-64.2-33.4h-0.7C71.2,136.1,47.4,148.7,32.9,169.6L32.9,169.6z"/>
	<path class="st0" d="M97.1,114c12-0.1,22.9-6.6,28.9-17c5.9-10.4,5.8-23.1-0.2-33.5c-6-10.3-17.1-16.7-29-16.7
		c-12,0-23,6.4-29,16.7c-6,10.3-6.1,23.1-0.2,33.5c5.9,10.4,16.9,16.9,28.9,17H97.1z"/>
	<path class="st0" d="M526.9,511.6l-63.7-63.7c-1.3,1.4-2.6,2.7-3.8,4.2h0c-0.3,0.4-0.6,0.8-0.9,1.2l-1.9,1.8
		c-1.3,1.4-2.8,2.6-4.2,4l-4.7,4.4l63.7,63.7C516.2,521.5,521.3,516.3,526.9,511.6L526.9,511.6z"/>
	<path class="st0" d="M97.1,641.7c-25.6,0.1-49.6,12.7-64.2,33.7c3.1,2.8,6.5,5.5,10,7.9c2.3,1.6,4.7,3,7.2,4.4l1.1,0.5
		c2.3,1.2,4.6,2.4,7,3.4l1.6,0.8l6.7,2.4l2.4,0.8c2,0.6,4,1.1,6,1.5l3.3,0.8l5.3,0.9l4.2,1.3h9.2h5.9h3.3l4.7-0.7l4.7-0.8l3.7-0.8
		l0,0c1.9-0.4,3.7-0.9,5.6-1.5l2.8-0.9c2.1-0.7,4-1.4,6.1-2.3l2.2-0.9l6.5-3.2l2.1-1.1c2-1.1,3.8-2.3,5.7-3.5l2.2-1.4
		c1.8-1.2,3.4-2.5,5-3.8l2.5-2l1.6-1.5l0,0C146.8,654.5,122.8,641.8,97.1,641.7L97.1,641.7z"/>
	<path class="st0" d="M477.8,350.1c0.2-41.2-19.4-80-52.8-104.2c-33.4-24.2-76.4-30.8-115.5-17.8c-39.1,13-69.5,44.1-81.7,83.5
		c-12.2,39.4-4.6,82.2,20.3,115.1c15-20.4,36-35.6,59.9-43.7c-15.1-11.7-24.7-29.2-26.3-48.3c-1.6-19.1,4.8-37.9,17.8-52
		c12.9-14.1,31.2-22.1,50.3-22.1s37.4,8,50.3,22.1c12.9,14.1,19.4,32.9,17.8,52c-1.6,19.1-11.1,36.6-26.3,48.3
		c24,8.2,44.9,23.4,60,43.7C468.6,404.6,477.7,377.7,477.8,350.1L477.8,350.1z"/>
	<path class="st0" d="M97.1,506c-23.9-0.1-46.9,8.7-64.7,24.6c-17.8,15.9-29.1,37.8-31.8,61.5c-2.7,23.7,3.5,47.6,17.4,67
		C28.9,645,43.4,634,60,627.4c-11.2-10-17.8-24.2-18.3-39.2c-0.5-15,5.1-29.6,15.5-40.4c10.4-10.8,24.8-16.9,39.8-16.9
		c15,0,29.4,6,39.9,16.8c10.5,10.8,16.1,25.4,15.6,40.4c-0.5,15-7.1,29.2-18.3,39.2c16.6,6.6,31.1,17.6,42,31.7
		c11.7-16.3,17.9-35.8,17.9-55.9c0-25.8-10.2-50.5-28.4-68.7C147.6,516.3,122.8,506,97.1,506L97.1,506z"/>
	<path class="st0" d="M183.7,178.5l-0.7,0.7c-2,2.1-3.9,3.9-6,5.8l-3,2.7l-0.8,0.7l63.9,63.7v0c4.8-5.5,9.9-10.6,15.4-15.4
		l-63.7-63.9C187,175.1,185.3,176.8,183.7,178.5L183.7,178.5z"/>
	<path class="st0" d="M130.8,586.2c0,18.6-15.1,33.7-33.7,33.7s-33.7-15.1-33.7-33.7c0-18.6,15.1-33.7,33.7-33.7
		S130.8,567.6,130.8,586.2"/>
</g>
</svg>
