<?xml version="1.0" encoding="utf-8"?>
<!-- Generator: Adobe Illustrator 26.0.0, SVG Export Plug-In . SVG Version: 6.00 Build 0)  -->
<svg version="1.1" id="Layer_1" xmlns="http://www.w3.org/2000/svg" xmlns:xlink="http://www.w3.org/1999/xlink" x="0px" y="0px"
	 viewBox="0 0 700 700" style="enable-background:new 0 0 700 700;" xml:space="preserve">
<style type="text/css">
	.st0{fill:#FFFFFF;}
</style>
<g>
	<path class="st0" d="M350,367.6c11,0,20-9,20-20s-9-20-20-20H239.8v-43.8c0-15.4-18-23.7-29.7-13.7l-77.4,66.2
		c-8.4,7.2-8.4,20.2,0,27.4l77.4,66.2c11.7,10,29.7,1.7,29.7-13.7v-48.6H350z"/>
	<path class="st0" d="M470.5,189.1H283.6c-11,0-20,9-20,20s9,20,20,20h166.9v236.5H287.2c-11,0-20,9-20,20s9,20,20,20h183.4
		c11,0,20-9,20-20V209.1C490.5,198,481.6,189.1,470.5,189.1z"/>
	<path class="st0" d="M350,0C156.7,0,0,156.7,0,350s156.7,350,350,350s350-156.7,350-350S543.3,0,350,0z M569.2,569.2
		c-28.5,28.5-61.6,50.8-98.5,66.5C432.5,651.8,391.9,660,350,660c-41.9,0-82.5-8.2-120.7-24.3c-36.9-15.6-70.1-38-98.5-66.5
		c-28.5-28.5-50.8-61.6-66.5-98.5C48.2,432.5,40,391.9,40,350s8.2-82.5,24.3-120.7c15.6-36.9,38-70.1,66.5-98.5
		c28.5-28.5,61.6-50.8,98.5-66.5C267.5,48.2,308.1,40,350,40c41.9,0,82.5,8.2,120.7,24.3c36.9,15.6,70.1,38,98.5,66.5
		c28.5,28.5,50.8,61.6,66.5,98.5C651.8,267.5,660,308.1,660,350s-8.2,82.5-24.3,120.7C620,507.6,597.7,540.7,569.2,569.2z"/>
</g>
</svg>
