<?xml version="1.0" encoding="utf-8"?>
<!-- Generator: Adobe Illustrator 26.0.0, SVG Export Plug-In . SVG Version: 6.00 Build 0)  -->
<svg version="1.1" id="Layer_1" xmlns="http://www.w3.org/2000/svg" xmlns:xlink="http://www.w3.org/1999/xlink" x="0px" y="0px"
	 viewBox="0 0 700 700" style="enable-background:new 0 0 700 700;" xml:space="preserve">
<style type="text/css">
	.st0{fill:#FFFFFF;}
</style>
<g>
	<g>
		<path class="st0" d="M350,40c41.9,0,82.5,8.2,120.7,24.3c36.9,15.6,70.1,38,98.5,66.5c28.5,28.5,50.8,61.6,66.5,98.5
			C651.8,267.5,660,308.1,660,350s-8.2,82.5-24.3,120.7c-15.6,36.9-38,70.1-66.5,98.5c-28.5,28.5-61.6,50.8-98.5,66.5
			C432.5,651.8,391.9,660,350,660s-82.5-8.2-120.7-24.3c-36.9-15.6-70.1-38-98.5-66.5S80,507.6,64.3,470.7
			C48.2,432.5,40,391.9,40,350s8.2-82.5,24.3-120.7c15.6-36.9,38-70.1,66.5-98.5s61.6-50.8,98.5-66.5C267.5,48.2,308.1,40,350,40
			 M350,0C156.7,0,0,156.7,0,350s156.7,350,350,350s350-156.7,350-350S543.3,0,350,0L350,0z"/>
	</g>
</g>
<g>
	<g>
		<path class="st0" d="M307,456c-5.1,0-10.2-2-14.1-5.9l-97.4-97.4c-7.8-7.8-7.8-20.5,0-28.3s20.5-7.8,28.3,0l83.2,83.2l167.1-167.1
			c7.8-7.8,20.5-7.8,28.3,0s7.8,20.5,0,28.3L321.1,450.1C317.2,454,312.1,456,307,456z"/>
	</g>
</g>
</svg>
