<?xml version="1.0" encoding="utf-8"?>
<!-- Generator: Adobe Illustrator 26.0.0, SVG Export Plug-In . SVG Version: 6.00 Build 0)  -->
<svg version="1.1" id="Layer_1" xmlns="http://www.w3.org/2000/svg" xmlns:xlink="http://www.w3.org/1999/xlink" x="0px" y="0px"
	 viewBox="0 0 855 855" style="enable-background:new 0 0 855 855;" xml:space="preserve">
<style type="text/css">
	.st0{fill:#FFFFFF;}
</style>
<g transform="translate(0.000000,694.000000) scale(0.100000,-0.100000)">
	<path class="st0" d="M2625,6108c-77-7-251-43-330-69c-498-162-920-574-1095-1069c-64-181-70-229-70-560c0-321,3-347,57-510
		c106-324,294-595,576-832c43-36,75-69,70-73c-4-4-75-29-157-55c-254-80-464-179-667-316C476,2266,91,1632,31,1015C9,798-4,28,8-320
		c6-181,14-343,18-359s26-48,49-72l42-44h2699h2700l48,49l49,50l-6,713c-7,787-18,1104-43,1218c-9,41-36,132-60,203
		c-183,532-482,927-923,1216c-198,130-381,214-625,287c-83,25-155,49-159,54c-5,4,27,37,71,73c91,76,220,210,302,312
		c137,173,263,447,315,685c22,101,32,452,16,587c-60,515-433,1038-913,1279c-187,94-345,143-545,169C2941,6113,2731,6118,2625,6108z
		 M3092,5760c363-53,769-368,957-744c169-335,186-777,43-1111c-137-322-360-568-642-709c-128-65-216-98-328-127
		c-84-21-117-24-294-24c-218,0-287,10-442,61c-478,159-824,552-923,1046c-25,125-25,415,0,533c59,275,178,492,381,695
		c170,170,347,280,565,352c67,22,139,38,196,43C2720,5786,2967,5778,3092,5760z M3620,2674c267-27,591-158,850-343
		c100-72,307-270,393-376c172-213,290-452,362-735c51-200,56-321,55-1357v-328H2957c-1278,0-2392,3-2475,7l-152,6v236
		c0,329,18,1062,30,1206c21,259,141,583,311,839c108,162,308,370,474,494c202,150,558,307,775,342c41,7,179,16,305,20
		C2515,2695,3494,2687,3620,2674z"/>
	<path class="st0" d="M5906,4424c-58-16-125-107-126-169c0-19,98-123,455-480c250-250,455-460,455-465c0-6-202-213-450-460l-450-450
		v-43c0-91,54-152,142-160l50-5l459,459l459,459l449-449l449-449l46,6c92,13,139,58,152,145l7,44l-447,447c-245,245-446,450-446,455
		c0,6,198,208,439,451c283,284,442,451,446,468c10,39-1,71-37,112c-39,46-77,65-125,65c-37,0-53-15-485-447l-447-447l-453,450
		c-285,283-464,454-483,461C5948,4427,5922,4428,5906,4424z"/>
</g>
</svg>
