<?xml version="1.0" encoding="utf-8"?>
<!-- Generator: Adobe Illustrator 26.0.0, SVG Export Plug-In . SVG Version: 6.00 Build 0)  -->
<svg version="1.1" id="Layer_1" xmlns="http://www.w3.org/2000/svg" xmlns:xlink="http://www.w3.org/1999/xlink" x="0px" y="0px"
	 viewBox="0 0 700 700" style="enable-background:new 0 0 700 700;" xml:space="preserve">
<style type="text/css">
	.st0{fill:#FFFFFF;}
</style>
<g>
	<g>
		<path class="st0" d="M229.6,195c-2.9,0.1-5.7,1.6-7.4,3.9c-1.8,2.4-2.3,5.4-1.6,8.2l32.3,121L395.4,350l-142.5,21.8l-32.3,121
			c-0.7,2.4-0.3,5,0.9,7.2c1.2,2.2,3.2,3.8,5.6,4.6c2.4,0.7,5,0.5,7.2-0.6l290.6-145.3c2.2-1.1,3.8-2.9,4.7-5.2c0.9-2.2,0.9-4.7,0-7
			c-0.9-2.2-2.5-4.1-4.7-5.2L234.3,196C232.9,195.3,231.3,195,229.6,195L229.6,195z"/>
	</g>
</g>
<g>
	<g>
		<path class="st0" d="M350,40c41.9,0,82.5,8.2,120.7,24.3c36.9,15.6,70.1,38,98.5,66.5s50.8,61.6,66.5,98.5
			C651.8,267.5,660,308.1,660,350s-8.2,82.5-24.3,120.7c-15.6,36.9-38,70.1-66.5,98.5s-61.6,50.8-98.5,66.5
			C432.5,651.8,391.9,660,350,660s-82.5-8.2-120.7-24.3c-36.9-15.6-70.1-38-98.5-66.5S80,507.6,64.3,470.7
			C48.2,432.5,40,391.9,40,350s8.2-82.5,24.3-120.7c15.6-36.9,38-70.1,66.5-98.5s61.6-50.8,98.5-66.5C267.5,48.2,308.1,40,350,40
			 M350,0C156.7,0,0,156.7,0,350s156.7,350,350,350s350-156.7,350-350S543.3,0,350,0L350,0z"/>
	</g>
</g>
</svg>
