<?xml version="1.0" encoding="utf-8"?>
<!-- Generator: Adobe Illustrator 26.0.0, SVG Export Plug-In . SVG Version: 6.00 Build 0)  -->
<svg version="1.1" id="Layer_1" xmlns="http://www.w3.org/2000/svg" xmlns:xlink="http://www.w3.org/1999/xlink" x="0px" y="0px"
	 viewBox="0 0 700 700" style="enable-background:new 0 0 700 700;" xml:space="preserve">
<style type="text/css">
	.st0{fill:#000000;}
</style>
<g>
	<path class="st0" d="M350,299.6c-59.9,0-108.5,48.7-108.5,108.5S290.1,516.7,350,516.7c59.9,0,108.5-48.7,108.5-108.5
		S409.9,299.6,350,299.6z M350,466.7c-32.3,0-58.5-26.3-58.5-58.5c0-32.3,26.3-58.5,58.5-58.5c32.3,0,58.5,26.3,58.5,58.5
		C408.5,440.4,382.3,466.7,350,466.7z"/>
	<path class="st0" d="M243.1,134.3c9.3,40.8,41.3,72.8,81.9,82.4v16.3c-11.4,2.3-20.2,11.9-20.2,24c0,13.8,11.2,25,25,25h40.4
		c13.8,0,25-11.2,25-25c0-12.1-8.8-21.7-20.2-24v-16.3c40.7-9.5,72.7-41.6,81.9-82.4C514.6,131,560.7,83.5,560.7,25
		c0-13.8-11.2-25-25-25H164.3c-13.8,0-25,11.2-25,25C139.3,83.5,185.4,131,243.1,134.3L243.1,134.3z M459.9,84.2V50h45.4
		C497,68,480.1,81.1,459.9,84.2z M409.9,109.9c0,33-26.9,59.9-59.9,59.9c-33,0-59.9-26.9-59.9-59.9V50h119.8V109.9z M240.1,84.2
		C219.9,81.1,203.1,68,194.7,50h45.4V84.2z"/>
	<path class="st0" d="M605.7,340.5c0-60.1-20.1-118.7-56.6-165.2c-8.5-10.8-24.2-12.8-35.1-4.2c-10.8,8.5-12.8,24.3-4.2,35.1
		c29.6,37.7,45.9,85.4,45.9,134.3c0,117.3-92.3,212.8-205.7,212.8s-205.7-95.4-205.7-212.8c0-48.9,16.3-96.6,45.9-134.3
		c8.5-10.9,6.6-26.6-4.2-35.1c-10.9-8.5-26.6-6.6-35.1,4.2c-36.5,46.5-56.6,105.2-56.6,165.2c0,88.4,42.9,166.7,108.3,214.3V675
		c0,13.8,11.2,25,25,25c13.8,0,25-11.2,25-25v-91.7c30.1,12.8,63,19.9,97.5,19.9c30.8,0,60.3-5.9,87.6-16.2v88c0,13.8,11.2,25,25,25
		s25-11.2,25-25V561.6C558.6,514.8,605.8,433.3,605.7,340.5L605.7,340.5z"/>
</g>
</svg>
