<?xml version="1.0" standalone="no"?>
<!DOCTYPE svg PUBLIC "-//W3C//DTD SVG 20010904//EN"
 "http://www.w3.org/TR/2001/REC-SVG-20010904/DTD/svg10.dtd">
<svg version="1.0" xmlns="http://www.w3.org/2000/svg"
 width="701.000000pt" height="700.000000pt" viewBox="0 0 701.000000 700.000000"
 preserveAspectRatio="xMidYMid meet">

<g transform="translate(0.000000,700.000000) scale(0.100000,-0.100000)"
fill="#fff" stroke="none">
<path d="M3227 6990 c-850 -77 -1597 -421 -2188 -1010 -80 -80 -181 -189 -225
-242 -452 -547 -723 -1198 -794 -1907 -13 -133 -13 -529 0 -662 122 -1214 841
-2259 1929 -2803 341 -171 714 -284 1113 -338 219 -29 641 -32 853 -4 805 103
1496 438 2056 996 580 578 928 1304 1014 2115 19 184 19 559 0 735 -91 815
-437 1537 -1014 2110 -550 547 -1243 888 -2011 990 -177 24 -573 34 -733 20z
m559 -441 c1006 -97 1877 -661 2385 -1544 174 -302 312 -704 363 -1055 96
-660 -25 -1340 -339 -1911 -468 -852 -1286 -1423 -2250 -1569 -176 -27 -528
-38 -700 -21 -591 56 -1119 259 -1579 605 -669 504 -1093 1238 -1202 2081 -23
178 -23 552 0 730 65 505 234 951 514 1360 509 743 1305 1221 2202 1320 145
16 462 18 606 4z"/>
<path d="M2582 4958 l-202 -203 -200 200 -200 200 -155 -155 -155 -155 200
-200 200 -200 -200 -200 -200 -200 155 -155 155 -155 200 200 200 200 203
-203 202 -202 155 155 155 155 -203 203 -202 202 202 203 203 202 -155 155
-155 155 -203 -202z"/>
<path d="M4070 5005 l-155 -155 203 -202 202 -203 -202 -202 -203 -203 155
-155 155 -155 202 202 203 203 200 -200 200 -200 155 155 155 155 -200 200
-200 200 200 200 200 200 -155 155 -155 155 -200 -200 -200 -200 -203 203
-202 202 -155 -155z"/>
<path d="M3475 2718 c-726 -153 -1321 -281 -1323 -283 -2 -2 16 -97 41 -212
43 -202 45 -208 68 -206 29 2 2652 554 2658 559 2 2 -16 98 -40 214 -40 190
-46 210 -64 209 -11 -1 -614 -127 -1340 -281z"/>
</g>
</svg>
