<?xml version="1.0" encoding="utf-8"?>
<!-- Generator: Adobe Illustrator 26.0.0, SVG Export Plug-In . SVG Version: 6.00 Build 0)  -->
<svg version="1.1" id="Layer_1" xmlns="http://www.w3.org/2000/svg" xmlns:xlink="http://www.w3.org/1999/xlink" x="0px" y="0px"
	 viewBox="0 0 700 700" style="enable-background:new 0 0 700 700;" xml:space="preserve">
<style type="text/css">
	.st0{fill:#FFFFFF;}
</style>
<g>
	<path class="st0" d="M350,0C156.7,0,0,156.7,0,350s156.7,350,350,350s350-156.7,350-350S543.3,0,350,0z M569.2,569.2
		c-28.5,28.5-61.6,50.8-98.5,66.5C432.5,651.8,391.9,660,350,660s-82.5-8.2-120.7-24.3c-36.9-15.6-70.1-38-98.5-66.5
		c-28.5-28.5-50.8-61.6-66.5-98.5C48.2,432.5,40,391.9,40,350s8.2-82.5,24.3-120.7c15.6-36.9,38-70.1,66.5-98.5
		c28.5-28.5,61.6-50.8,98.5-66.5C267.5,48.2,308.1,40,350,40s82.5,8.2,120.7,24.3c36.9,15.6,70.1,38,98.5,66.5
		c28.5,28.5,50.8,61.6,66.5,98.5C651.8,267.5,660,308.1,660,350s-8.2,82.5-24.3,120.7C620,507.6,597.7,540.7,569.2,569.2z"/>
	<path class="st0" d="M420.9,397.7c-0.1-0.1-0.2-0.1-0.3-0.2c19.8-23.9,31.7-54.6,31.7-88c0-76.2-61.7-137.9-137.9-137.9
		s-137.9,61.7-137.9,137.9s61.7,137.9,137.9,137.9c28.3,0,54.6-8.5,76.5-23.2c0.5,0.6,1,1.2,1.6,1.8l97.4,97.4
		c3.9,3.9,9,5.9,14.1,5.9s10.2-2,14.1-5.9c7.8-7.8,7.8-20.5,0-28.3L420.9,397.7z M314.5,407.3c-54,0-97.9-43.9-97.9-97.9
		s43.9-97.9,97.9-97.9c54,0,97.9,43.9,97.9,97.9S368.5,407.3,314.5,407.3z"/>
</g>
</svg>
