<?xml version="1.0" encoding="utf-8"?>
<!-- Generator: Adobe Illustrator 26.0.0, SVG Export Plug-In . SVG Version: 6.00 Build 0)  -->
<svg version="1.1" id="Layer_1" xmlns="http://www.w3.org/2000/svg" xmlns:xlink="http://www.w3.org/1999/xlink" x="0px" y="0px"
	 viewBox="0 0 700 700" style="enable-background:new 0 0 700 700;" xml:space="preserve">
<style type="text/css">
	.st0{fill:#FFFFFF;}
</style>
<g>
	<g>
		<path class="st0" d="M581.6,280.1c-21.8-25.2-50.8-38.2-82.7-44.9c-18.1-3.8-37-7.6-55.2-6.2c-36.5,2.7-67,19.2-88.8,51.7
			c-4.3-6.7-7.1-12.5-11.1-17c-20.7-23.2-44.1-42.3-77.2-42.6c-29.6-0.2-57.7,6.5-84.2,20.3c-36.1,18.8-62.9,45.4-73.2,86
			c-1.3,5.3-2,10.7-3.8,15.8c-9.3,26.2-7.2,52.5,2.9,77.3c10.9,26.8,34,43,60.4,51.6c48.2,15.7,92.2,1.5,132.1-26.2
			c13.5-9.4,24.2-22.7,36.1-34.1c7.7,8.2,14.5,17.4,23.1,24.4c51.5,41.8,121.2,40.7,176.5,5.2c31.6-20.3,51.9-50.5,60.8-87
			C603.9,327.8,600.4,301.8,581.6,280.1L581.6,280.1z M339.6,323.4c-4.9,46.5-25.1,84.6-63.3,112.3c-20.2,14.7-43,23.3-67.9,25.5
			c-42.1,3.9-84.1-29.8-81.9-71.8c1.6-30.6,1.9-63.8,23.2-90.1c31.6-39.1,71.6-62.7,123.1-59.5C311.2,242.1,343.7,284.8,339.6,323.4
			L339.6,323.4z M572.1,348.1c-16.5,56.8-65.4,105.6-133.6,99.8c-32.9-2.8-60.4-17.1-79-45.7c-6.7-10.4-8.7-20.7-3.9-33
			c4.1-10.3,5.6-21.7,7.6-32.8c10.8-59.6,45.8-86.5,98.7-90c29.3,3.4,62.5,9.7,90.6,30.9C576.8,295.6,579.6,321.9,572.1,348.1
			L572.1,348.1z"/>
	</g>
	<g>
		<path class="st0" d="M283.9,352.7c-7.5-2-12.4,1.3-14.4,9.9c-4.1,17.5-14.6,30.1-31.9,36.6c-20.2,7.5-50.2-5-44.2-34.4
			c0.5-2.5,0.3-5.5-0.3-8c-1.7-6.7-5.7-10-13.2-9.6c-7.5,0.3-9.1,5.6-9.8,10.8c-5.9,42.2,27.8,63.4,58.6,60.8
			c2.7-0.1,5.5,0.1,8.1-0.3c26.2-4.6,49.6-20.8,55.3-49.4C293.7,361.4,291.7,354.8,283.9,352.7L283.9,352.7z"/>
	</g>
	<g>
		<path class="st0" d="M215.8,340.4c3.8,0,10.5-1.1,10.9-2.7c2.3-11.2,4.1-22.6,4.3-33.9c0-3-5.9-8.7-9-8.6
			c-4.4,0.2-11.2,3.6-12.5,7.2c-2.9,8.1-3,17.2-3.9,23.6C205.4,335.4,208.2,340.3,215.8,340.4L215.8,340.4z"/>
	</g>
	<g>
		<path class="st0" d="M273.7,299.3c-2.3-7.1-7.7-9.3-14.8-8.7c-8,0.7-7.2,6.1-7,11.7c0.2,5.4-0.1,10.8-0.8,16.1
			c-1.5,10.7,5.2,13.1,13.6,14c9.7,1,8.7-6,9.2-12l0.5-13C274.2,304.7,274.6,301.9,273.7,299.3L273.7,299.3z"/>
	</g>
	<g>
		<path class="st0" d="M513,353.3c-3.4-0.6-10.2,2.4-10.6,4.5c-3.5,19.6-18.4,26.3-34.4,30.8c-25.4,7.3-38.9-3.1-39.8-29.5
			c-0.1-2.6-0.1-5.1-0.2-7.7c-0.3-7-4.6-10.5-10.9-11c-7.3-0.6-10.1,3.9-10.5,10.8c-1.3,21.6,5.2,39.7,25.2,50.1
			c23.4,12.2,46.6,7.2,68.6-4.8c12.1-6.6,20.1-16.7,22-30.9C523.2,358.4,518.9,354.3,513,353.3L513,353.3z"/>
	</g>
	<g>
		<path class="st0" d="M504.7,321.9c0.3-5.4,0.6-10.5,0.3-15.5c-0.4-6.5-5.9-11.5-12.4-11.4c-8.4,0.1-9.6,4.9-9.6,11.4
			c0.1,16.3,0,19.3,11.6,22.7C499.5,330.5,504.5,326.9,504.7,321.9L504.7,321.9z"/>
	</g>
	<g>
		<path class="st0" d="M456.1,330c2.9-0.1,5.1-2.5,5.2-5.4c0.4-7.3,1.1-14.6,0.2-21.8c-0.4-3.4-5.2-8-8.8-9
			c-8.3-2.4-9.6,1.2-12.3,15.6C438.2,321.5,443.5,330.5,456.1,330L456.1,330z"/>
	</g>
</g>
<g>
	<g>
		<path class="st0" d="M350,40c41.9,0,82.5,8.2,120.7,24.3c36.9,15.6,70.1,38,98.5,66.5s50.8,61.6,66.5,98.5
			C651.8,267.5,660,308.1,660,350s-8.2,82.5-24.3,120.7c-15.6,36.9-38,70.1-66.5,98.5c-28.5,28.5-61.6,50.8-98.5,66.5
			C432.5,651.8,391.9,660,350,660s-82.5-8.2-120.7-24.3c-36.9-15.6-70.1-38-98.5-66.5c-28.5-28.5-50.8-61.6-66.5-98.5
			C48.2,432.5,40,391.9,40,350s8.2-82.5,24.3-120.7c15.6-36.9,38-70.1,66.5-98.5s61.6-50.8,98.5-66.5C267.5,48.2,308.1,40,350,40
			 M350,0C156.7,0,0,156.7,0,350s156.7,350,350,350s350-156.7,350-350S543.3,0,350,0L350,0z"/>
	</g>
</g>
</svg>
